<svg xmlns="http://www.w3.org/2000/svg" version="1.1" xmlns:xlink="http://www.w3.org/1999/xlink" viewBox="0 0 200 200"><rect width="200" height="200" fill="url('#gradient')"></rect><defs><linearGradient id="gradient" gradientTransform="rotate(45 0.5 0.5)"><stop offset="0%" stop-color="#e2e1ba"></stop><stop offset="100%" stop-color="#fff8ea"></stop></linearGradient></defs><g><g fill="#acc6ca" transform="matrix(3.7901153929893314,0,0,3.7901153929893314,10.931310704427688,128.21869864226062)" stroke="#5aa3a6" stroke-width="0.2"><path d="M9.89-8.57L9.89-6.03L4.50-6.03L4.50-2.64L10.87-2.64L10.87 0L1.07 0L1.07-14.22L10.89-14.22L10.89-11.57L4.50-11.57L4.50-8.57L9.89-8.57ZM12.05-10.57L15.14-10.57L15.24-9.33Q16.34-10.76 18.26-10.76L18.26-10.76Q19.91-10.76 20.73-9.78Q21.54-8.79 21.57-6.81L21.57-6.81L21.57 0L18.27 0L18.27-6.67Q18.27-7.47 17.95-7.85Q17.63-8.22 16.78-8.22L16.78-8.22Q15.81-8.22 15.34-7.46L15.34-7.46L15.34 0L12.05 0L12.05-10.57ZM29.84-10.64L29.79-7.59L28.70-7.67Q27.15-7.67 26.71-6.69L26.71-6.69L26.71 0L23.42 0L23.42-10.57L26.50-10.57L26.61-9.21Q27.44-10.76 28.93-10.76L28.93-10.76Q29.45-10.76 29.84-10.64L29.84-10.64ZM34.44-10.57L34.44 0L31.14 0L31.14-10.57L34.44-10.57ZM30.95-13.29L30.95-13.29Q30.95-13.99 31.46-14.44Q31.96-14.89 32.77-14.89Q33.58-14.89 34.09-14.44Q34.60-13.99 34.60-13.29Q34.60-12.59 34.09-12.14Q33.58-11.69 32.77-11.69Q31.96-11.69 31.46-12.14Q30.95-12.59 30.95-13.29ZM36.41-10.57L39.49-10.57L39.60-9.33Q40.69-10.76 42.62-10.76L42.62-10.76Q44.27-10.76 45.08-9.78Q45.90-8.79 45.93-6.81L45.93-6.81L45.93 0L42.63 0L42.63-6.67Q42.63-7.47 42.30-7.85Q41.98-8.22 41.13-8.22L41.13-8.22Q40.17-8.22 39.70-7.46L39.70-7.46L39.70 0L36.41 0L36.41-10.57Z"></path></g></g></svg>